:SAMPLES-PER-SECOND 30
:FULLY-SPECIFIED
:DEGREES
460
root  33.5007 34.0559 13.9359 -170.783 38.6864 -176.174
LeftUpLeg  -8.61677 12.7362 10.6211
LeftLeg  15.5233 24.8466 5.03312
LeftFoot  4.86816 -0.107393 2.20551
LeftToes  -22.9194 2.48695e-006 -1.03773e-007
Spine  0.826881 0.086874 1.55703
Spine1  1.1773 0.0916909 3.09962
RightShoulder  0.186662 8.58747 9.6825
RightArm  -26.4768 -15.1596 70.4193
RightForeArm  32.9967 13.0431 2.3352
RightHand  0.218187 -5.20039 -4.56986
LeftShoulder1  0.0987614 -2.39351 -11.3592
LeftArm  -11.29 13.1313 -70.7404
LeftForeArm  32.1091 -14.2205 -2.55405
LeftHand  0.101433 3.6477 2.93352
HEad  -15.6788 -26.3842 6.57659
RightUpLeg  -12.5131 -5.72508 3.0235
RightLeg  17.2773 26.5672 6.18688
RightFoot  -1.62474 -0.0167315 -0.802743
RightToes  -22.8506 -0.101678 -0.202326
461
root  33.5194 34.0554 13.9296 -170.749 38.6646 -176.154
LeftUpLeg  -8.62358 12.7303 10.6561
LeftLeg  15.5399 24.8338 5.03794
LeftFoot  4.8667 -0.107396 2.20556
LeftToes  -22.911 2.48695e-006 -1.03773e-007
Spine  0.833033 0.130471 1.54931
Spine1  1.19063 0.176489 3.08682
RightShoulder  0.186987 8.62315 9.65211
RightArm  -26.5445 -15.1978 70.42
RightForeArm  33.0121 12.9633 2.3204
RightHand  0.218901 -5.19669 -4.61066
LeftShoulder1  0.0987614 -2.40093 -11.4041
LeftArm  -11.3227 13.0918 -70.6721
LeftForeArm  32.1357 -14.1635 -2.54336
LeftHand  0.100487 3.73098 2.91827
HEad  -15.7857 -26.5838 6.64061
RightUpLeg  -12.4727 -5.78934 3.05603
RightLeg  17.2096 26.6354 6.16978
RightFoot  -1.62264 -0.017206 -0.803944
RightToes  -22.7993 -0.101678 -0.202326
462
root  33.5379 34.0552 13.9246 -170.717 38.6154 -176.138
LeftUpLeg  -8.63094 12.7371 10.6912
LeftLeg  15.5315 24.792 5.02634
LeftFoot  4.86373 -0.107329 2.20451
LeftToes  -22.9519 2.48695e-006 -1.03773e-007
Spine  0.837251 0.163811 1.53502
Spine1  1.20041 0.241667 3.0607
RightShoulder  0.18733 8.62089 9.61402
RightArm  -26.6238 -15.211 70.4609
RightForeArm  33.1821 12.904 2.3093
RightHand  0.220078 -5.14553 -4.64205
LeftShoulder1  0.0987614 -2.38273 -11.4229
LeftArm  -11.4132 13.038 -70.5897
LeftForeArm  32.169 -14.134 -2.53781
LeftHand  0.101197 3.71935 2.9744
HEad  -15.8507 -26.759 6.66427
RightUpLeg  -12.4345 -5.86094 3.09253
RightLeg  17.139 26.6663 6.14327
RightFoot  -1.61803 -0.0178204 -0.803068
RightToes  -22.7768 -0.101678 -0.202326
463
root  33.5543 34.0551 13.9244 -170.693 38.5057 -176.117
LeftUpLeg  -8.66488 12.6997 10.7354
LeftLeg  15.5451 24.7387 5.02218
LeftFoot  4.87957 -0.107199 2.2025
LeftToes  -23.0518 2.48695e-006 -1.03773e-007
Spine  0.850846 0.172853 1.51917
Spine1  1.22755 0.2601 3.0293
RightShoulder  0.18775 8.57923 9.6528
RightArm  -26.7061 -15.1834 70.4708
RightForeArm  33.261 12.923 2.31275
RightHand  0.220405 -5.15767 -4.67136
LeftShoulder1  0.0987614 -2.38618 -11.4471
LeftArm  -11.5748 12.9527 -70.4612
LeftForeArm  32.2736 -14.0959 -2.53062
LeftHand  0.103178 3.65136 3.09776
HEad  -15.8637 -26.7949 6.7255
RightUpLeg  -12.4205 -5.89779 3.13961
RightLeg  17.124 26.5995 6.12203
RightFoot  -1.61673 -0.0185657 -0.800248
RightToes  -22.886 -0.101678 -0.202326
464
root  33.5693 34.0553 13.9266 -170.696 38.4202 -176.121
LeftUpLeg  -8.68053 12.6807 10.7619
LeftLeg  15.5409 24.6837 5.00995
LeftFoot  4.89816 -0.107015 2.19963
LeftToes  -22.9638 2.48695e-006 -1.03773e-007
Spine  0.857169 0.18091 1.51123
Spine1  1.23829 0.274676 3.0172
RightShoulder  0.18812 8.56488 9.61943
RightArm  -26.714 -15.1874 70.5022
RightForeArm  33.235 12.9702 2.32151
RightHand  0.22027 -5.12897 -4.64085
LeftShoulder1  0.0987614 -2.38179 -11.4455
LeftArm  -11.6505 12.8833 -70.3826
LeftForeArm  32.2773 -14.0633 -2.52453
LeftHand  0.103109 3.65325 3.09305
HEad  -15.8649 -26.7941 6.70229
RightUpLeg  -12.428 -5.85242 3.16133
RightLeg  17.1726 26.4638 6.11586
RightFoot  -1.67613 -0.0175113 -0.825468
RightToes  -22.6891 -0.101678 -0.202326
465
root  33.5854 34.0555 13.9271 -170.684 38.2625 -176.111
LeftUpLeg  -8.69567 12.6467 10.8013
LeftLeg  15.4869 24.5816 4.96735
LeftFoot  4.90821 -0.106619 2.19348
LeftToes  -22.9054 2.48695e-006 -1.03773e-007
Spine  0.870935 0.167819 1.50449
Spine1  1.26616 0.248713 3.00465
RightShoulder  0.188499 8.57897 9.60204
RightArm  -26.6895 -15.1767 70.521
RightForeArm  33.2522 13.0264 2.33192
RightHand  0.219753 -5.12034 -4.60249
LeftShoulder1  0.0987614 -2.41835 -11.3901
LeftArm  -11.7569 12.7989 -70.3321
LeftForeArm  32.3395 -14.0379 -2.51973
LeftHand  0.103234 3.64616 3.09848
HEad  -15.7625 -26.7681 6.72822
RightUpLeg  -12.4016 -5.96331 3.20549
RightLeg  17.1493 26.4196 6.09556
RightFoot  -1.69595 -0.0175452 -0.833847
RightToes  -22.6749 -0.101678 -0.202326
466
root  33.6037 34.0558 13.923 -170.646 38.1104 -176.086
LeftUpLeg  -8.69622 12.5954 10.8509
LeftLeg  15.386 24.5082 4.91017
LeftFoot  4.98355 -0.108314 2.21984
LeftToes  -23.1681 2.48695e-006 -1.03773e-007
Spine  0.882122 0.158269 1.49694
Spine1  1.28756 0.22995 2.98966
RightShoulder  0.188924 8.58492 9.61625
RightArm  -26.6413 -15.1325 70.5237
RightForeArm  33.2333 13.0348 2.33348
RightHand  0.220632 -5.09024 -4.63279
LeftShoulder1  0.0987614 -2.44094 -11.3615
LeftArm  -11.8425 12.702 -70.262
LeftForeArm  32.398 -14.0352 -2.51919
LeftHand  0.102972 3.67648 3.10008
HEad  -15.6867 -26.7823 6.78599
RightUpLeg  -12.3707 -6.08307 3.2593
RightLeg  17.088 26.4053 6.06406
RightFoot  -1.69479 -0.0179689 -0.836229
RightToes  -22.6902 -0.101678 -0.202326
467
root  33.617 34.0561 13.9201 -170.612 37.9827 -176.066
LeftUpLeg  -8.71982 12.5303 10.8883
LeftLeg  15.3451 24.4662 4.88476
LeftFoot  5.00846 -0.108714 2.22605
LeftToes  -23.2267 2.48695e-006 -1.03773e-007
Spine  0.886744 0.151492 1.49356
Spine1  1.29287 0.216582 2.98308
RightShoulder  0.189404 8.5558 9.64798
RightArm  -26.6114 -15.0759 70.5165
RightForeArm  33.2985 13.0325 2.33301
RightHand  0.221144 -5.05906 -4.64004
LeftShoulder1  0.0987614 -2.42978 -11.3816
LeftArm  -11.8862 12.6231 -70.1721
LeftForeArm  32.4142 -14.039 -2.51989
LeftHand  0.104578 3.58794 3.17138
HEad  -15.7589 -26.8436 6.70889
RightUpLeg  -12.3587 -6.1784 3.30034
RightLeg  17.0596 26.3844 6.04643
RightFoot  -1.69913 -0.0185582 -0.836087
RightToes  -22.6419 -0.101678 -0.202326
468
root  33.629 34.0564 13.9181 -170.588 37.8658 -176.061
LeftUpLeg  -8.72705 12.5274 10.9116
LeftLeg  15.2572 24.3782 4.83081
LeftFoot  5.05804 -0.109547 2.23901
LeftToes  -23.231 2.48695e-006 -1.03773e-007
Spine  0.893495 0.139642 1.50031
Spine1  1.30492 0.194049 2.99591
RightShoulder  0.189414 8.521 9.63375
RightArm  -26.63 -15.0127 70.5569
RightForeArm  33.3161 13.0518 2.33657
RightHand  0.220266 -5.14466 -4.65279
LeftShoulder1  0.0987614 -2.41389 -11.3582
LeftArm  -11.9554 12.5754 -70.1512
LeftForeArm  32.3926 -14.0682 -2.52535
LeftHand  0.104325 3.57863 3.14145
HEad  -15.9332 -26.9055 6.60744
RightUpLeg  -12.3487 -6.26495 3.33157
RightLeg  17.0264 26.3553 6.02486
RightFoot  -1.70293 -0.0192521 -0.834355
RightToes  -22.6127 -0.101678 -0.202326
469
root  33.6394 34.0566 13.9113 -170.552 37.7713 -176.051
LeftUpLeg  -8.7093 12.5424 10.9288
LeftLeg  15.1184 24.2992 4.75713
LeftFoot  5.11079 -0.110521 2.25416
LeftToes  -23.2473 2.48695e-006 -1.03773e-007
Spine  0.88964 0.127959 1.51777
Spine1  1.29808 0.173041 3.02835
RightShoulder  0.189386 8.54105 9.60659
RightArm  -26.6258 -14.9917 70.5727
RightForeArm  33.2235 13.056 2.33742
RightHand  0.222041 -5.10744 -4.7312
LeftShoulder1  0.0987614 -2.43 -11.2997
LeftArm  -12.0137 12.5675 -70.1955
LeftForeArm  32.3791 -14.0461 -2.52124
LeftHand  0.104665 3.56176 3.15829
HEad  -16.1452 -26.9346 6.52702
RightUpLeg  -12.3316 -6.32762 3.35293
RightLeg  16.9716 26.3466 5.99764
RightFoot  -1.69967 -0.0199901 -0.831965
RightToes  -22.57 -0.101678 -0.202326
470
root  33.6467 34.0568 13.9014 -170.509 37.7169 -176.038
LeftUpLeg  -8.68058 12.622 10.9409
LeftLeg  14.9688 24.1955 4.67476
LeftFoot  5.1526 -0.110981 2.26131
LeftToes  -23.2843 2.48695e-006 -1.03773e-007
Spine  0.888688 0.122619 1.53342
Spine1  1.29741 0.164072 3.05816
RightShoulder  0.189346 8.55955 9.56032
RightArm  -26.5953 -14.967 70.6063
RightForeArm  33.2325 13.0887 2.34347
RightHand  0.220892 -5.108 -4.66235
LeftShoulder1  0.0987614 -2.46774 -11.2663
LeftArm  -12.0254 12.5599 -70.2187
LeftForeArm  32.416 -14.0111 -2.51466
LeftHand  0.10481 3.52902 3.14534
HEad  -16.2859 -26.8599 6.49106
RightUpLeg  -12.332 -6.37141 3.36981
RightLeg  16.9399 26.3351 5.98056
RightFoot  -1.69234 -0.020855 -0.827622
RightToes  -22.4723 -0.101678 -0.202326
471
root  33.6535 34.0569 13.8919 -170.422 37.6522 -176.005
LeftUpLeg  -8.69677 12.5974 10.9632
LeftLeg  14.8593 24.1846 4.62647
LeftFoot  5.17584 -0.11154 2.27002
LeftToes  -23.2489 2.48695e-006 -1.03773e-007
Spine  0.877026 0.112149 1.55307
Spine1  1.27392 0.144203 3.0962
RightShoulder  0.189343 8.55565 9.55303
RightArm  -26.5268 -14.9444 70.6028
RightForeArm  33.2353 13.1107 2.34755
RightHand  0.221072 -5.03975 -4.62074
LeftShoulder1  0.0987614 -2.47261 -11.283
LeftArm  -12.0511 12.5421 -70.2308
LeftForeArm  32.4913 -13.9787 -2.50856
LeftHand  0.104897 3.53233 3.15576
HEad  -16.1483 -26.7185 6.50221
RightUpLeg  -12.3639 -6.3397 3.40201
RightLeg  16.8978 26.259 5.9451
RightFoot  -1.67894 -0.0220613 -0.817981
RightToes  -22.4174 -0.101678 -0.202326
472
root  33.6591 34.0571 13.883 -170.407 37.627 -176.002
LeftUpLeg  -8.6932 12.6607 10.9657
LeftLeg  14.8328 24.114 4.60267
LeftFoot  5.19199 -0.111493 2.26928
LeftToes  -23.4188 2.48695e-006 -1.03773e-007
Spine  0.876132 0.114114 1.55683
Spine1  1.27136 0.146697 3.10461
RightShoulder  0.189347 8.54612 9.55033
RightArm  -26.5197 -14.9472 70.6107
RightForeArm  33.2236 13.1544 2.35566
RightHand  0.219609 -5.09645 -4.57487
LeftShoulder1  0.0987614 -2.48578 -11.2966
LeftArm  -12.0632 12.5335 -70.2339
LeftForeArm  32.4936 -13.9745 -2.50777
LeftHand  0.104862 3.54607 3.16349
HEad  -16.0264 -26.6658 6.48808
RightUpLeg  -12.3666 -6.39374 3.40537
RightLeg  16.9253 26.2886 5.96402
RightFoot  -1.70659 -0.0216887 -0.832868
RightToes  -22.3581 -0.101678 -0.202326
